<svg width="14" height="8" viewBox="0 0 14 8" fill="none" xmlns="http://www.w3.org/2000/svg">
<path d="M0.636048 0.293C0.823576 0.105529 1.07788 0.000213623 1.34305 0.000213623C1.60821 0.000213623 1.86252 0.105529 2.05005 0.293L7.00005 5.243L11.95 0.293C12.1387 0.110842 12.3913 0.0100473 12.6535 0.0123258C12.9156 0.0146042 13.1665 0.119773 13.3519 0.305181C13.5373 0.49059 13.6424 0.741402 13.6447 1.0036C13.647 1.2658 13.5462 1.5184 13.364 1.707L7.70705 7.364C7.51952 7.55147 7.26521 7.65679 7.00005 7.65679C6.73488 7.65679 6.48058 7.55147 6.29305 7.364L0.636048 1.707C0.448577 1.51947 0.343262 1.26516 0.343262 1C0.343262 0.734836 0.448577 0.480528 0.636048 0.293Z" fill="#707070"/>
</svg>
