<svg width="13" height="15" viewBox="0 0 13 15" fill="none" xmlns="http://www.w3.org/2000/svg">
<path d="M2.95833 6.79166H4.375V8.20832H2.95833V6.79166ZM12.875 3.24999V13.1667C12.875 13.9458 12.2375 14.5833 11.4583 14.5833H1.54167C1.16594 14.5833 0.805609 14.4341 0.539932 14.1684C0.274255 13.9027 0.125 13.5424 0.125 13.1667L0.132083 3.24999C0.132083 2.47082 0.755417 1.83332 1.54167 1.83332H2.25V0.416656H3.66667V1.83332H9.33333V0.416656H10.75V1.83332H11.4583C12.2375 1.83332 12.875 2.47082 12.875 3.24999ZM1.54167 4.66666H11.4583V3.24999H1.54167V4.66666ZM11.4583 13.1667V6.08332H1.54167V13.1667H11.4583ZM8.625 8.20832H10.0417V6.79166H8.625V8.20832ZM5.79167 8.20832H7.20833V6.79166H5.79167V8.20832Z" fill="#D6CCC6"/>
</svg>
