<svg width="14" height="15" viewBox="0 0 14 15" fill="none" xmlns="http://www.w3.org/2000/svg">
<path d="M0.243896 7.682C0.243896 6.458 0.549897 5.324 1.1559 4.286C1.7619 3.248 2.5839 2.426 3.6219 1.82C4.6599 1.214 5.7879 0.914001 7.0059 0.914001C7.9179 0.914001 8.7939 1.094 9.6279 1.448C10.4619 1.802 11.1759 2.288 11.7819 2.888C12.3879 3.488 12.8679 4.208 13.2219 5.048C13.5759 5.888 13.7559 6.758 13.7559 7.682C13.7559 8.594 13.5759 9.47 13.2219 10.304C12.8679 11.138 12.3819 11.858 11.7819 12.458C11.1819 13.058 10.4619 13.538 9.6279 13.892C8.7939 14.246 7.9239 14.426 7.0059 14.426C6.0879 14.426 5.2059 14.246 4.3719 13.892C3.5379 13.538 2.8179 13.052 2.2119 12.452C1.6059 11.852 1.1319 11.132 0.771896 10.304C0.411896 9.476 0.243896 8.6 0.243896 7.682ZM1.7319 7.682C1.7319 9.104 2.2479 10.34 3.2859 11.39C4.3239 12.428 5.5599 12.944 7.0059 12.944C7.9539 12.944 8.8359 12.71 9.6399 12.236C10.4439 11.762 11.0919 11.126 11.5659 10.316C12.0399 9.506 12.2799 8.63 12.2799 7.682C12.2799 6.734 12.0399 5.852 11.5659 5.042C11.0919 4.232 10.4499 3.59 9.6399 3.116C8.8299 2.642 7.9539 2.408 7.0059 2.408C6.0579 2.408 5.1759 2.642 4.3719 3.116C3.5679 3.59 2.9199 4.232 2.4399 5.042C1.9599 5.852 1.7319 6.734 1.7319 7.682ZM6.4839 7.682V3.686C6.4839 3.548 6.5319 3.428 6.6279 3.332C6.7239 3.236 6.8439 3.188 6.9819 3.188C7.1199 3.188 7.2399 3.236 7.3359 3.332C7.4319 3.428 7.4799 3.548 7.4799 3.686V6.812L9.1479 5.87C9.2679 5.798 9.3939 5.78 9.5259 5.816C9.6579 5.852 9.7599 5.936 9.8259 6.062C9.8979 6.182 9.9099 6.308 9.8739 6.44C9.8379 6.572 9.7599 6.68 9.6399 6.746L7.3119 8.048C7.221 8.13351 7.10069 8.18077 6.9759 8.18C6.91048 8.18108 6.84552 8.16889 6.78494 8.14417C6.72437 8.11945 6.66943 8.08271 6.62345 8.03617C6.57747 7.98962 6.54139 7.93425 6.51741 7.87337C6.49342 7.8125 6.48202 7.7474 6.4839 7.682Z" fill="#D6CCC6"/>
</svg>
